# xmcd
#
# Track frame offsets: 
#        150
#        18475
#        34350
#        43800
#
# Disc length: 812 seconds
#
# Revision: 3
# Processed by: cddbd v1.5.2PL0 Copyright (c) Steve Scherf et al.
# Submitted via: ExactAudioCopyFreeDBPlugin 1.0
#
DISCID=30032a04
DTITLE=左とん平 - とん平のヘイ・ユウ・ブルース
DYEAR=1995
DGENRE=JPop
TTITLE0=とん平のヘイ・ユウ・ブルース
TTITLE1=東京っていい街だな
TTITLE2=とん平の酒浸り人生
TTITLE3=続・東京っていい街だな
EXTD=
EXTT0=
EXTT1=
EXTT2=
EXTT3=
PLAYORDER=
